<svg width="118" height="29" viewBox="0 0 118 29" fill="none" xmlns="http://www.w3.org/2000/svg">
<path d="M15.0366 8.03614V20.76C15.0366 22.0218 14.8818 23.1573 14.5721 24.1667C14.2625 25.1954 13.7787 26.0592 13.1207 26.758C12.4821 27.4762 11.6693 28.0295 10.6824 28.4177C9.6954 28.8059 8.5246 29 7.16995 29C5.87336 29 4.6445 28.835 3.48338 28.505C2.32225 28.175 1.24821 27.5733 0.261253 26.6998L2.35128 23.8464C3.04795 24.4869 3.77366 24.9819 4.52839 25.3313C5.28312 25.6807 6.15396 25.8554 7.14092 25.8554C7.97306 25.8554 8.66974 25.739 9.23095 25.506C9.81151 25.2731 10.2663 24.9528 10.5953 24.5452C10.9436 24.1375 11.1855 23.6426 11.321 23.0602C11.4758 22.4973 11.5532 21.8665 11.5532 21.1677V20.1486H11.4951C10.992 20.828 10.3243 21.3424 9.4922 21.6918C8.66006 22.0218 7.80857 22.1867 6.93773 22.1867C5.89271 22.1867 4.94446 22.0023 4.09297 21.6335C3.24148 21.2453 2.5061 20.7309 1.88683 20.0904C1.28691 19.4498 0.822464 18.6928 0.493478 17.8193C0.164493 16.9458 0 16.0141 0 15.0241C0 13.9953 0.154817 13.0345 0.46445 12.1416C0.774084 11.2487 1.22886 10.4722 1.82877 9.81225C2.42869 9.15228 3.14471 8.63789 3.97685 8.26908C4.82835 7.88086 5.79595 7.68675 6.87967 7.68675C7.86663 7.68675 8.78585 7.88086 9.63734 8.26908C10.4888 8.6573 11.1662 9.27845 11.6693 10.1325H11.7274V8.03614H15.0366ZM7.60537 10.8313C6.98611 10.8313 6.4249 10.9381 5.92174 11.1516C5.41859 11.3457 4.98316 11.6272 4.61547 11.996C4.26714 12.3454 3.98653 12.7821 3.77366 13.3062C3.58014 13.8109 3.48338 14.3738 3.48338 14.995C3.48338 15.5579 3.58014 16.082 3.77366 16.5673C3.98653 17.0525 4.27681 17.4796 4.6445 17.8484C5.01219 18.2172 5.44761 18.5084 5.95077 18.7219C6.45392 18.9354 6.99578 19.0422 7.57634 19.0422C8.21496 19.0422 8.78585 18.9354 9.289 18.7219C9.81151 18.5084 10.2469 18.2269 10.5953 17.8775C10.963 17.5087 11.2436 17.072 11.4371 16.5673C11.6306 16.0626 11.7274 15.5191 11.7274 14.9367C11.7274 13.7139 11.3597 12.7239 10.6243 11.9669C9.88892 11.2098 8.88261 10.8313 7.60537 10.8313Z" fill="#29DE92"/>
<path d="M17.5731 0H21.0565V22.012H17.5731V0Z" fill="#29DE92"/>
<path d="M22.8929 15.0241C22.8929 13.9177 23.0864 12.918 23.4735 12.0251C23.8799 11.1128 24.4217 10.3363 25.099 9.69578C25.7764 9.05522 26.5795 8.56024 27.5084 8.21084C28.4373 7.86145 29.4242 7.68675 30.4692 7.68675C31.5143 7.68675 32.5012 7.86145 33.4301 8.21084C34.359 8.56024 35.1621 9.05522 35.8394 9.69578C36.5168 10.3363 37.049 11.1128 37.436 12.0251C37.8424 12.918 38.0456 13.9177 38.0456 15.0241C38.0456 16.1305 37.8424 17.1399 37.436 18.0522C37.049 18.9451 36.5168 19.7118 35.8394 20.3524C35.1621 20.993 34.359 21.488 33.4301 21.8373C32.5012 22.1867 31.5143 22.3614 30.4692 22.3614C29.4242 22.3614 28.4373 22.1867 27.5084 21.8373C26.5795 21.488 25.7764 20.993 25.099 20.3524C24.4217 19.7118 23.8799 18.9451 23.4735 18.0522C23.0864 17.1399 22.8929 16.1305 22.8929 15.0241ZM26.3763 15.0241C26.3763 15.5676 26.4634 16.0917 26.6375 16.5964C26.831 17.1011 27.102 17.5475 27.4503 17.9357C27.818 18.324 28.2534 18.6345 28.7566 18.8675C29.2597 19.1004 29.8306 19.2169 30.4692 19.2169C31.1079 19.2169 31.6787 19.1004 32.1819 18.8675C32.6851 18.6345 33.1108 18.324 33.4591 17.9357C33.8268 17.5475 34.0978 17.1011 34.2719 16.5964C34.4654 16.0917 34.5622 15.5676 34.5622 15.0241C34.5622 14.4806 34.4654 13.9565 34.2719 13.4518C34.0978 12.9471 33.8268 12.5007 33.4591 12.1124C33.1108 11.7242 32.6851 11.4137 32.1819 11.1807C31.6787 10.9478 31.1079 10.8313 30.4692 10.8313C29.8306 10.8313 29.2597 10.9478 28.7566 11.1807C28.2534 11.4137 27.818 11.7242 27.4503 12.1124C27.102 12.5007 26.831 12.9471 26.6375 13.4518C26.4634 13.9565 26.3763 14.4806 26.3763 15.0241Z" fill="#29DE92"/>
<path d="M37.9541 8.03614H41.7278L44.7467 17.8193H44.8048L47.6205 8.03614H51.3942L54.4131 17.8193H54.4711L57.374 8.03614H60.8864L56.1548 22.012H52.7004L49.3912 12.4618H49.3332L46.4013 22.012H42.8018L37.9541 8.03614Z" fill="#29DE92"/>
<path d="M62.5525 0H66.0359V9.81225H66.123C66.2972 9.57932 66.5197 9.34639 66.7906 9.11345C67.0616 8.86111 67.3905 8.62818 67.7776 8.41466C68.1646 8.20114 68.6097 8.02644 69.1129 7.89056C69.616 7.75469 70.1966 7.68675 70.8546 7.68675C71.8415 7.68675 72.7511 7.88086 73.5832 8.26908C74.4154 8.63789 75.1217 9.15228 75.7023 9.81225C76.3022 10.4722 76.7666 11.2487 77.0956 12.1416C77.4246 13.0345 77.5891 13.9953 77.5891 15.0241C77.5891 16.0529 77.4343 17.0137 77.1246 17.9066C76.815 18.7995 76.3602 19.576 75.7603 20.2359C75.1604 20.8959 74.4347 21.42 73.5832 21.8082C72.7317 22.177 71.7738 22.3614 70.7094 22.3614C69.7225 22.3614 68.8032 22.1673 67.9518 21.7791C67.1003 21.3909 66.4229 20.7697 65.9198 19.9157H65.8617V22.012H62.5525V0ZM74.1057 15.0241C74.1057 14.4806 74.0089 13.9565 73.8154 13.4518C73.6413 12.9471 73.3703 12.5007 73.0026 12.1124C72.6543 11.7242 72.2286 11.4137 71.7254 11.1807C71.2223 10.9478 70.6514 10.8313 70.0127 10.8313C69.3741 10.8313 68.8032 10.9478 68.3001 11.1807C67.7969 11.4137 67.3615 11.7242 66.9938 12.1124C66.6455 12.5007 66.3746 12.9471 66.181 13.4518C66.0069 13.9565 65.9198 14.4806 65.9198 15.0241C65.9198 15.5676 66.0069 16.0917 66.181 16.5964C66.3746 17.1011 66.6455 17.5475 66.9938 17.9357C67.3615 18.324 67.7969 18.6345 68.3001 18.8675C68.8032 19.1004 69.3741 19.2169 70.0127 19.2169C70.6514 19.2169 71.2223 19.1004 71.7254 18.8675C72.2286 18.6345 72.6543 18.324 73.0026 17.9357C73.3703 17.5475 73.6413 17.1011 73.8154 16.5964C74.0089 16.0917 74.1057 15.5676 74.1057 15.0241Z" fill="#29DE92"/>
<path d="M79.2112 15.0241C79.2112 13.9177 79.4048 12.918 79.7918 12.0251C80.1982 11.1128 80.7401 10.3363 81.4174 9.69578C82.0947 9.05522 82.8978 8.56024 83.8267 8.21084C84.7556 7.86145 85.7426 7.68675 86.7876 7.68675C87.8326 7.68675 88.8195 7.86145 89.7485 8.21084C90.6774 8.56024 91.4805 9.05522 92.1578 9.69578C92.8351 10.3363 93.3673 11.1128 93.7543 12.0251C94.1607 12.918 94.3639 13.9177 94.3639 15.0241C94.3639 16.1305 94.1607 17.1399 93.7543 18.0522C93.3673 18.9451 92.8351 19.7118 92.1578 20.3524C91.4805 20.993 90.6774 21.488 89.7485 21.8373C88.8195 22.1867 87.8326 22.3614 86.7876 22.3614C85.7426 22.3614 84.7556 22.1867 83.8267 21.8373C82.8978 21.488 82.0947 20.993 81.4174 20.3524C80.7401 19.7118 80.1982 18.9451 79.7918 18.0522C79.4048 17.1399 79.2112 16.1305 79.2112 15.0241ZM82.6946 15.0241C82.6946 15.5676 82.7817 16.0917 82.9559 16.5964C83.1494 17.1011 83.4203 17.5475 83.7687 17.9357C84.1364 18.324 84.5718 18.6345 85.0749 18.8675C85.5781 19.1004 86.149 19.2169 86.7876 19.2169C87.4262 19.2169 87.9971 19.1004 88.5002 18.8675C89.0034 18.6345 89.4291 18.324 89.7775 17.9357C90.1452 17.5475 90.4161 17.1011 90.5903 16.5964C90.7838 16.0917 90.8806 15.5676 90.8806 15.0241C90.8806 14.4806 90.7838 13.9565 90.5903 13.4518C90.4161 12.9471 90.1452 12.5007 89.7775 12.1124C89.4291 11.7242 89.0034 11.4137 88.5002 11.1807C87.9971 10.9478 87.4262 10.8313 86.7876 10.8313C86.149 10.8313 85.5781 10.9478 85.0749 11.1807C84.5718 11.4137 84.1364 11.7242 83.7687 12.1124C83.4203 12.5007 83.1494 12.9471 82.9559 13.4518C82.7817 13.9565 82.6946 14.4806 82.6946 15.0241Z" fill="#29DE92"/>
<path d="M96.0142 8.03614H99.3234V10.2199H99.3814C99.6911 9.55991 100.185 8.97758 100.862 8.47289C101.559 7.94879 102.487 7.68675 103.649 7.68675C105.835 7.68675 107.287 8.55054 108.003 10.2781C108.506 9.38521 109.135 8.73494 109.89 8.32731C110.644 7.90027 111.544 7.68675 112.589 7.68675C113.518 7.68675 114.302 7.84204 114.941 8.15261C115.579 8.46319 116.092 8.89023 116.479 9.43374C116.885 9.97724 117.176 10.6178 117.35 11.3554C117.524 12.0736 117.611 12.8501 117.611 13.6847V22.012H114.128V14.0924C114.128 13.6653 114.089 13.2577 114.012 12.8695C113.934 12.4618 113.799 12.1125 113.605 11.8213C113.412 11.5107 113.15 11.2681 112.821 11.0934C112.492 10.9187 112.067 10.8313 111.544 10.8313C111.002 10.8313 110.538 10.9381 110.151 11.1516C109.783 11.3457 109.474 11.6175 109.222 11.9669C108.99 12.2969 108.816 12.6851 108.699 13.1315C108.603 13.5586 108.554 13.9953 108.554 14.4418V22.012H105.071V13.6847C105.071 12.8112 104.887 12.1222 104.519 11.6175C104.152 11.0934 103.542 10.8313 102.691 10.8313C102.11 10.8313 101.617 10.9284 101.21 11.1225C100.823 11.3166 100.494 11.5786 100.223 11.9086C99.9717 12.2386 99.7878 12.6171 99.6717 13.0442C99.5556 13.4712 99.4975 13.9177 99.4975 14.3835V22.012H96.0142V8.03614Z" fill="#29DE92"/>
</svg>
