<svg width="349" height="495" viewBox="0 0 349 495" fill="none" xmlns="http://www.w3.org/2000/svg">
<path d="M348.589 8.09868V303.026C348.589 332.273 344.999 358.593 337.822 381.987C330.643 405.835 319.427 425.857 304.173 442.053C289.368 458.7 270.527 471.524 247.646 480.522C224.765 489.522 197.623 494.021 166.219 494.021C136.16 494.021 107.672 490.195 80.7541 482.548C53.836 474.899 28.9368 460.951 6.05655 440.705L54.5091 374.565C70.6598 389.412 87.4836 400.885 104.98 408.983C122.477 417.084 142.665 421.131 165.546 421.131C184.837 421.131 200.988 418.432 213.998 413.033C227.457 407.635 238 400.21 245.627 390.763C253.703 381.314 259.309 369.842 262.45 356.342C266.04 343.294 267.835 328.671 267.835 312.475V288.854H266.489C254.825 304.601 239.346 316.525 220.055 324.623C200.763 332.273 181.024 336.096 160.835 336.096C136.609 336.096 114.626 331.822 94.8861 323.272C75.1462 314.275 58.098 302.351 43.7417 287.503C29.8343 272.655 19.0669 255.109 11.4402 234.862C3.8134 214.615 0 193.019 0 170.073C0 146.227 3.58907 123.955 10.7672 103.258C17.9454 82.5618 28.4881 64.5645 42.3958 49.267C56.3034 33.9695 72.9028 22.0465 92.1943 13.4978C111.934 4.49927 134.366 0 159.489 0C182.37 0 203.68 4.49927 223.42 13.4978C243.16 22.4964 258.861 36.8939 270.527 56.6908H271.871V8.09868H348.589ZM176.313 72.8883C161.957 72.8883 148.946 75.3628 137.282 80.3121C125.618 84.8113 115.523 91.3353 106.999 99.8839C98.9238 107.983 92.4184 118.106 87.4836 130.254C82.9972 141.952 80.7541 155 80.7541 169.398C80.7541 182.445 82.9972 194.594 87.4836 205.842C92.4184 217.09 99.1481 226.989 107.672 235.537C116.196 244.086 126.29 250.834 137.955 255.784C149.619 260.734 162.181 263.207 175.64 263.207C190.445 263.207 203.68 260.734 215.344 255.784C227.457 250.834 237.552 244.311 245.627 236.212C254.152 227.663 260.656 217.54 265.143 205.842C269.63 194.144 271.871 181.546 271.871 168.048C271.871 139.703 263.348 116.756 246.3 99.209C229.252 81.6618 205.923 72.8883 176.313 72.8883Z" fill="#29DE92"/>
</svg>
